<?xml version="1.0" encoding="UTF-8"?>
<svg version="1.1" viewBox="18 23 72 62" xmlns="http://www.w3.org/2000/svg">
 <g stroke-linecap="round" stroke-linejoin="round" stroke-width="3">
  <path d="m30.801 49.496c-1.2566 0.02665-2.295 1.0447-2.295 2.3267v18.401c0 2.5494 2.0859 4.6352 4.6352 4.6352h18.423c1.3906 0 2.4567-1.2037 2.3176-2.5711-1.2283-12.028-10.799-21.577-22.828-22.782-0.08547-0.0072-0.16972-0.01089-0.25349-9e-3zm2.3403 5.0381c7.7961 1.7623 13.936 7.8964 15.707 15.689h-13.39c-1.2747 0-2.3176-1.0429-2.3176-2.3176z" fill="#2c93c4"/>
  <path d="m74.859 33.141h-41.717c-2.5494 0-4.6352 2.0859-4.6352 4.6352v4.6352c0 1.2747 1.0429 2.3176 2.3176 2.3176s2.3176-1.0429 2.3176-2.3176v-2.3176c0-1.2747 1.0429-2.3176 2.3176-2.3176h37.082c1.2747 0 2.3176 1.0429 2.3176 2.3176v27.811c0 1.2747-1.0429 2.3176-2.3176 2.3176h-11.588c-1.2747 0-2.3176 1.0429-2.3176 2.3176 0 1.2747 1.0429 2.3176 2.3176 2.3176h13.906c2.5494 0 4.6352-2.0859 4.6352-4.6352v-32.447c0-2.5494-2.0859-4.6352-4.6352-4.6352z" fill="#12d663"/>
 </g>
</svg>
