<?xml version="1.0" encoding="UTF-8"?>
<svg version="1.1" xmlns="http://www.w3.org/2000/svg" width="96" height="96">
<path d="M0 0 C9.22352895 6.93722126 17.327606 15.20583066 19.875 26.8125 C21.53854376 39.2453007 19.35456625 49.30470503 11.9765625 59.5234375 C-0.37004394 73.37419903 -22.40201681 78.99910591 -40.12109375 80.37109375 C-41.32958984 80.43490234 -41.32958984 80.43490234 -42.5625 80.5 C-43.50222656 80.55285156 -44.44195312 80.60570313 -45.41015625 80.66015625 C-52.57835674 80.88205209 -56.6643115 79.87124514 -62.3125 75.25 C-69.31633422 66.68975817 -66.44947368 53.73212928 -65.57421875 43.46875 C-65.47035355 42.23765503 -65.36648834 41.00656006 -65.25947571 39.73815918 C-65.0388355 37.14605516 -64.81599111 34.55413793 -64.59106445 31.96240234 C-64.25116362 28.01351865 -63.92717315 24.06352502 -63.60351562 20.11328125 C-63.386398 17.58585301 -63.16833072 15.05850613 -62.94921875 12.53125 C-62.85533371 11.35912964 -62.76144867 10.18700928 -62.66471863 8.97937012 C-61.1767072 -7.57953015 -61.1767072 -7.57953015 -55.625 -12.5 C-39.63866427 -22.94005599 -13.91495409 -9.34076027 0 0 Z " fill="#EB3131" transform="translate(70.5625,15.5)"/>
<path d="M0 0 C9.22352895 6.93722126 17.327606 15.20583066 19.875 26.8125 C21.53854376 39.2453007 19.35456625 49.30470503 11.9765625 59.5234375 C-0.37004394 73.37419903 -22.40201681 78.99910591 -40.12109375 80.37109375 C-41.32958984 80.43490234 -41.32958984 80.43490234 -42.5625 80.5 C-43.50222656 80.55285156 -44.44195312 80.60570313 -45.41015625 80.66015625 C-52.57835674 80.88205209 -56.6643115 79.87124514 -62.3125 75.25 C-69.31633422 66.68975817 -66.44947368 53.73212928 -65.57421875 43.46875 C-65.47035355 42.23765503 -65.36648834 41.00656006 -65.25947571 39.73815918 C-65.0388355 37.14605516 -64.81599111 34.55413793 -64.59106445 31.96240234 C-64.25116362 28.01351865 -63.92717315 24.06352502 -63.60351562 20.11328125 C-63.386398 17.58585301 -63.16833072 15.05850613 -62.94921875 12.53125 C-62.85533371 11.35912964 -62.76144867 10.18700928 -62.66471863 8.97937012 C-61.1767072 -7.57953015 -61.1767072 -7.57953015 -55.625 -12.5 C-39.63866427 -22.94005599 -13.91495409 -9.34076027 0 0 Z M-57.5625 -7.5 C-58.50138817 -4.4136188 -58.50138817 -4.4136188 -58.6875 -0.8125 C-58.75114746 -0.10971924 -58.81479492 0.59306152 -58.88037109 1.31713867 C-59.0310183 3.00717971 -59.17148837 4.69814281 -59.3046875 6.38964844 C-59.61135266 10.08937777 -59.97764798 13.78237603 -60.34375 17.4765625 C-62.19561832 36.36287806 -62.19561832 36.36287806 -63.0625 55.3125 C-63.0929541 56.09278564 -63.1234082 56.87307129 -63.15478516 57.67700195 C-63.15731432 61.39781812 -62.64704142 63.37450369 -60.5546875 66.48046875 C-56.7287854 69.06270293 -53.64589948 69.18093154 -49.1875 69 C-48.39239014 68.9808252 -47.59728027 68.96165039 -46.77807617 68.94189453 C-29.18387257 68.29214352 -11.42326864 63.48064468 1.20703125 50.7109375 C6.64528558 44.70371739 9.00843847 39.26819955 8.9375 31.1875 C8.92891968 30.05646851 8.92891968 30.05646851 8.92016602 28.90258789 C8.72072479 22.68096175 7.38686577 18.40162401 3.4375 13.5 C2.92960937 12.81808594 2.42171875 12.13617187 1.8984375 11.43359375 C-8.21641878 -1.19799218 -27.57656013 -11.05711779 -43.65625 -12.84375 C-50.26040669 -13.16434013 -53.31343295 -13.03802566 -57.5625 -7.5 Z " fill="#010101" transform="translate(70.5625,15.5)"/>
<path d="M0 0 C18.14553512 6.35941652 33.01538376 15.46826752 41.8125 33.0625 C42.65534569 44.15194112 42.59156154 52.18934428 35.203125 60.9765625 C23.83028218 73.23627838 5.58017929 78.41033076 -10.68359375 79.34765625 C-12.30966358 79.40539812 -13.93599627 79.45615017 -15.5625 79.5 C-16.33650146 79.53464355 -17.11050293 79.56928711 -17.90795898 79.60498047 C-18.64731689 79.61029785 -19.3866748 79.61561523 -20.1484375 79.62109375 C-21.13529541 79.64127563 -21.13529541 79.64127563 -22.14208984 79.66186523 C-25.60570418 78.64692453 -27.03653713 76.91536573 -29.1875 74.0625 C-29.85271015 71.10009713 -29.74546291 68.25995195 -29.6171875 65.23828125 C-29.58828934 63.93096794 -29.58828934 63.93096794 -29.55880737 62.59724426 C-29.27767735 52.8046927 -28.47913243 43.0381094 -27.58837891 33.28491211 C-27.3087228 30.20844745 -27.04613982 27.13083384 -26.78515625 24.05273438 C-26.61036912 22.0702246 -26.43462408 20.087799 -26.2578125 18.10546875 C-26.18063995 17.19814499 -26.10346741 16.29082123 -26.0239563 15.35600281 C-24.85458125 2.83490883 -24.85458125 2.83490883 -21.39453125 -0.84375 C-14.75723872 -4.13302771 -6.73207715 -2.07416876 0 0 Z M-19.1875 5.0625 C-19.67252729 7.34883528 -19.67252729 7.34883528 -19.87353516 10.0402832 C-19.97348785 11.07929276 -20.07344055 12.11830231 -20.17642212 13.188797 C-20.27546844 14.3188768 -20.37451477 15.4489566 -20.4765625 16.61328125 C-20.58471283 17.77820602 -20.69286316 18.9431308 -20.80429077 20.14335632 C-21.03204296 22.61869675 -21.25535151 25.09444936 -21.47460938 27.57055664 C-21.80781444 31.32224343 -22.15662483 35.07222437 -22.5078125 38.82226562 C-22.72750603 41.23168499 -22.94628384 43.64118805 -23.1640625 46.05078125 C-23.26715729 47.15859451 -23.37025208 48.26640778 -23.47647095 49.40779114 C-24.49422648 60.7272278 -24.49422648 60.7272278 -24.1875 72.0625 C-21.81817619 74.43182381 -21.35366905 74.35838592 -18.125 74.375 C-0.92712681 74.00167424 17.92535322 69.59109302 30.75 57.625 C35.98685421 51.95585829 37.42984609 46.34595991 37.140625 38.75390625 C36.0837907 30.08534868 29.99467078 23.92175895 23.56689453 18.41748047 C15.79995963 12.41880406 -10.7073604 -3.4176396 -19.1875 5.0625 Z " fill="#F4F4F4" transform="translate(37.1875,4.9375)"/>
<path d="M0 0 C4.33652633 0.31474788 7.82252737 1.28781264 11.875 2.78125 C12.61121582 3.05042236 13.34743164 3.31959473 14.10595703 3.59692383 C28.23870155 8.93572491 41.59157394 15.77495862 49.5625 29.28125 C51.84110648 34.75888528 51.8856455 40.86060369 50.21484375 46.515625 C45.08887184 57.96584797 34.33253549 62.96088421 23.23828125 67.31640625 C13.70719258 70.4514255 1.90089517 72.68984684 -8.125 71.28125 C-10.125 69.28125 -10.125 69.28125 -10.35629272 66.69963074 C-10.25340685 58.84814762 -9.82908765 51.08721081 -9.1015625 43.26953125 C-8.94220718 41.50635811 -8.94220718 41.50635811 -8.77963257 39.70756531 C-8.55565269 37.25113674 -8.32862291 34.79498446 -8.09863281 32.33911133 C-7.74743417 28.56618535 -7.41235151 24.79204114 -7.078125 21.01757812 C-6.85773981 18.62230648 -6.63641995 16.22712061 -6.4140625 13.83203125 C-6.31501617 12.70195145 -6.21596985 11.57187164 -6.11392212 10.407547 C-6.01396942 9.36853745 -5.91401672 8.32952789 -5.81103516 7.2590332 C-5.72665192 6.34338089 -5.64226868 5.42772858 -5.55532837 4.48432922 C-4.83701735 0.80691403 -3.64445772 0.32800119 0 0 Z M-1.125 4.28125 C-1.84297732 11.80633334 -2.55434807 19.33202069 -3.26123047 26.8581543 C-3.5022386 29.41591373 -3.74473279 31.97353361 -3.98876953 34.53100586 C-4.34021919 38.21692378 -4.68623944 41.90331822 -5.03125 45.58984375 C-5.1406189 46.72457626 -5.24998779 47.85930878 -5.3626709 49.02842712 C-5.9293983 55.14523454 -6.23828584 61.13832532 -6.125 67.28125 C9.34563255 67.00363669 28.25239981 64.18522249 40.01953125 53.296875 C44.17040925 48.799386 46.55353659 45.12084348 47.25 38.96875 C46.46007333 31.20113773 42.38056757 25.8795236 36.80859375 20.58203125 C27.12547756 12.98768313 11.44862786 4.28125 -1.125 4.28125 Z " fill="#0E0909" transform="translate(23.125,7.71875)"/>
<path d="M0 0 C9.10743564 1.82050108 17.00272066 4.47764776 22.97265625 12.03515625 C24.82227748 15.57264476 24.74195654 19.14039916 24 23 C22.32458018 27.08057804 19.92737654 29.10644345 16 31 C9.987638 33.12786908 4.37696254 34.42513084 -2 34 C-2.15318589 26.4024052 -1.6801662 18.93955113 -1 11.375 C-0.90460937 10.27542969 -0.80921875 9.17585938 -0.7109375 8.04296875 C-0.47777676 5.36162018 -0.2407296 2.68067779 0 0 Z " fill="#0E0808" transform="translate(32,29)"/>
<path d="M0 0 C3.63 0 7.26 0 11 0 C11 3.3 11 6.6 11 10 C13.37744845 9.57351116 15.75134251 9.13422767 18.125 8.6875 C18.79015625 8.56955078 19.4553125 8.45160156 20.140625 8.33007812 C24.5346039 7.49005275 28.07774406 6.12029198 32 4 C32.99 3.67 33.98 3.34 35 3 C35 2.34 35 1.68 35 1 C39.67201205 -0.20568053 44.21496292 -0.09382426 49 0 C47.62719165 5.66283445 43.55091981 8.749343 39 12 C26.64135858 19.27096732 12.11602329 21.55887427 -2 22 C-2.28571429 4.57142857 -2.28571429 4.57142857 0 0 Z " fill="#EA0B0B" transform="translate(19,53)"/>
<path d="M0 0 C1.92386845 0.88026056 3.83885958 1.77993691 5.75 2.6875 C7.35101563 3.43580078 7.35101563 3.43580078 8.984375 4.19921875 C12.21158473 6.12634788 13.92991066 7.88505514 16 11 C16.625 14 16.625 14 16 17 C12.07657134 21.21050881 8.71398507 22.83604008 3 24 C1.68 24 0.36 24 -1 24 C-1.10466648 15.92905177 -1.03387512 8.0125322 0 0 Z " fill="#F4F4F4" transform="translate(36,34)"/>
<path d="M0 0 C1.65 0.99 3.3 1.98 5 3 C4.8125 4.875 4.8125 4.875 4 7 C1.4375 8.25 1.4375 8.25 -1 9 C-0.67 6.03 -0.34 3.06 0 0 Z " fill="#131313" transform="translate(41,43)"/>
</svg>
