<svg viewBox="0 0 24 24" xmlns="http://www.w3.org/2000/svg"><path fill="currentColor" d="M9.22 16.88c-.77 0-1.38-.1-1.83-.3s-.76-.48-.95-.83-.28-.75-.28-1.2.07-.94.19-1.45l2.08-8.7 2.54-.39-2.28 9.44c-.04.2-.07.38-.07.54s.02.31.09.43.18.23.34.3.38.13.66.15zm2.34-8.47c.44-.13.94-.25 1.5-.35s1.17-.16 1.83-.16 1.14.09 1.58.28.8.44 1.09.76.5.7.63 1.13.2.89.2 1.38c0 .8-.13 1.53-.4 2.19s-.62 1.23-1.09 1.71-.96.86-1.67 1.12-1.36.4-2.12.4c-.37 0-.74-.03-1.11-.1l-.74 2.97H9.62zm.89 6.4c.19.04.41.06.69.06.43 0 .81-.08 1.16-.24s.65-.38.89-.66.44-.63.57-1.02.21-.84.21-1.32-.1-.87-.31-1.2-.57-.49-1.08-.49c-.35 0-.68.03-.98.1z"/></svg>
