<?xml version="1.0" encoding="UTF-8"?>
<svg version="1.1" xmlns="http://www.w3.org/2000/svg" width="72" height="72">
<path d="M0 0 C7.36032954 5.11039778 11.17839276 10.53517829 14 19 C14.90397549 31.09252454 13.8411749 40.80149069 5.875 50.375 C-2.00856263 58.53040962 -11.67077056 61.93047798 -22.8125 62.375 C-33.15174831 62.12789847 -40.46081012 58.60188506 -47.8359375 51.4140625 C-54.60133325 43.86710479 -57.38548856 35.22791041 -56.84375 25.0703125 C-55.97337696 19.02791508 -54.12996417 13.61973557 -50 9 C-49.34 9 -48.68 9 -48 9 C-48 8.34 -48 7.68 -48 7 C-34.68331527 -3.76113296 -15.6384175 -8.44806772 0 0 Z " fill="#C1D76D" transform="translate(57,7)"/>
<path d="M0 0 C1.36125 0.31710938 1.36125 0.31710938 2.75 0.640625 C8.24419456 2.04687718 11.41210417 3.57492847 15 8 C14.05125 8.556875 13.1025 9.11375 12.125 9.6875 C8.91121213 12.06570302 8.04434882 13.24034426 7 17 C5.35 17 3.7 17 2 17 C2.350625 17.721875 2.70125 18.44375 3.0625 19.1875 C4.13469486 22.40408459 4.06234365 23.81296905 3 27 C2.443125 27.66 1.88625 28.32 1.3125 29 C-0.2694193 30.95336817 -0.2694193 30.95336817 0.25 33.5 C2.2765006 36.39500086 3.26207434 36.60105864 6.5 37.75 C10.72713473 39.39350998 10.72713473 39.39350998 11.96484375 42.14453125 C12.4375 44.5625 12.4375 44.5625 12.68359375 46.87890625 C12.89039483 49.29695143 12.89039483 49.29695143 15 52 C10.25367101 58.10242298 3.59369375 60.29048778 -3.95556641 61.24804688 C-14.03918319 62.11034992 -21.94353811 60.82642611 -30.01953125 54.390625 C-36.4766876 48.46363517 -40.72771773 40.18080742 -41.1171875 31.33984375 C-41.12408064 28.88933151 -41.08868708 26.44874876 -41 24 C-38.625 24.5 -38.625 24.5 -36 26 C-35.51261734 27.98202281 -35.03404282 29.96859187 -34.66796875 31.9765625 C-33.86056545 34.42238068 -32.93026488 35.18318025 -30.875 36.6875 C-29.92625 37.450625 -28.9775 38.21375 -28 39 C-27.875 41.5625 -27.875 41.5625 -28 44 C-27.34 44.61875 -26.68 45.2375 -26 45.875 C-24 48 -24 48 -23.75 51.75 C-23.87375 53.35875 -23.87375 53.35875 -24 55 C-21.62766389 54.96219702 -21.62766389 54.96219702 -19 54 C-15.0659374 49.51953981 -14.19277618 45.78328543 -14 40 C-15.97166753 37.69494955 -15.97166753 37.69494955 -19.5 37.0625 C-23 36 -23 36 -25 33 C-21.85262818 33.69941596 -18.97411124 34.76078698 -16 36 C-16.4125 34.96875 -16.825 33.9375 -17.25 32.875 C-18 29 -18 29 -16.0625 25.875 C-15.381875 24.92625 -14.70125 23.9775 -14 23 C-14.12245809 20.20438833 -14.12245809 20.20438833 -15 18 C-18.62528568 17.79859524 -20.86501708 18.14223235 -24 20 C-23.67 18.02 -23.34 16.04 -23 14 C-25.31 13.01 -27.62 12.02 -30 11 C-28.9024777 8.00675737 -28.32317108 7.15389099 -25.375 5.75 C-24.59125 5.5025 -23.8075 5.255 -23 5 C-23 6.65 -23 8.3 -23 10 C-18.545 12.475 -18.545 12.475 -14 15 C-19.52660649 11.97763707 -19.52660649 11.97763707 -22 10 C-22.6875 7.375 -22.6875 7.375 -22 5 C-15.47036842 -2.41565829 -9.06295786 -2.46713853 0 0 Z " fill="#B3E2E9" transform="translate(44,5)"/>
<path d="M0 0 C5.32493609 4.71637196 9.39541811 9.88258885 10.453125 17.0859375 C10.81390208 27.93501963 7.7328817 36.58389788 1 45 C-0.9375 44.0625 -0.9375 44.0625 -3 42 C-3.66174825 39.0141919 -3.87205948 36.05138131 -4 33 C-4.61488281 32.82984375 -5.22976562 32.6596875 -5.86328125 32.484375 C-12.38184791 30.52984464 -12.38184791 30.52984464 -15.1875 28.125 C-16 26 -16 26 -15.3125 23.4375 C-14 21 -14 21 -12 18 C-11.97250522 15.93089407 -11.97250522 15.93089407 -12.375 13.8125 C-12.58125 12.554375 -12.7875 11.29625 -13 10 C-11.35 10 -9.7 10 -8 10 C-7.938125 9.2575 -7.87625 8.515 -7.8125 7.75 C-6.74919061 4.15110668 -5.04777533 3.08140754 -2 1 C-1.34 0.67 -0.68 0.34 0 0 Z " fill="#C6E16E" transform="translate(59,12)"/>
<path d="M0 0 C9.48454341 0.2459968 16.87033994 3.69410889 23.68359375 10.21484375 C30.88061985 18.48917937 31.26903663 27.93280418 30.5625 38.375 C28.91447167 47.16077265 24.25331015 53.57420372 17.5625 59.375 C7.67863942 65.88276601 -3.66374481 68.1584782 -15.30078125 65.79296875 C-24.30972918 63.00236112 -31.46276611 57.06280303 -36.4375 49.0625 C-40.73918769 40.26011416 -41.49087774 30.6771508 -38.4375 21.375 C-37.049756 18.48501166 -35.58170048 15.77348067 -33.4375 13.375 C-32.7775 13.375 -32.1175 13.375 -31.4375 13.375 C-31.4375 12.715 -31.4375 12.055 -31.4375 11.375 C-25.61911578 6.36848334 -18.77504577 3.53008337 -11.4375 1.375 C-10.7775 1.705 -10.1175 2.035 -9.4375 2.375 C-11.4175 3.365 -13.3975 4.355 -15.4375 5.375 C-14.4475 6.035 -13.4575 6.695 -12.4375 7.375 C-14.4175 7.375 -16.3975 7.375 -18.4375 7.375 C-18.32408466 9.78377257 -18.32408466 9.78377257 -17.4375 12.375 C-15.09959929 14.32835182 -15.09959929 14.32835182 -12.4375 15.375 C-11.7775 15.045 -11.1175 14.715 -10.4375 14.375 C-10.4375 15.365 -10.4375 16.355 -10.4375 17.375 C-14.43205527 16.76045304 -17.18216336 14.66853263 -20.4375 12.375 C-20.1075 10.725 -19.7775 9.075 -19.4375 7.375 C-27.35138925 12.23907027 -33.42637075 17.34161226 -36.4375 26.375 C-37.47111896 35.30479004 -35.58913614 43.78621778 -30.484375 51.21875 C-24.72011012 58.07137259 -19.70758193 61.85243913 -10.734375 62.7421875 C-0.66221491 63.22169856 8.27083535 61.70678885 16.9375 56.25 C24.83128643 47.60442439 28.21489681 38.40205199 28 26.73046875 C27.05399212 19.47492614 23.42637381 13.51899723 17.8125 8.875 C10.47068279 4.0316339 2.17699887 2.90653291 -6.4375 2.375 C-4.01874153 -0.04375847 -3.32616956 0.05321871 0 0 Z " fill="#6D5441" transform="translate(40.4375,2.625)"/>
<path d="M0 0 C2.375 0.5 2.375 0.5 5 2 C5.48738266 3.98202281 5.96595718 5.96859187 6.33203125 7.9765625 C7.13943455 10.42238068 8.06973512 11.18318025 10.125 12.6875 C11.548125 13.8321875 11.548125 13.8321875 13 15 C13.125 17.5625 13.125 17.5625 13 20 C13.66 20.61875 14.32 21.2375 15 21.875 C17.79654563 24.84632973 17.07316976 27.04883314 17 31 C17.99 31.66 18.98 32.32 20 33 C20 33.66 20 34.32 20 35 C13.64396699 33.7287934 9.99038871 29.83450939 6 25 C0.93308329 17.1462791 -0.33333108 9.20364146 0 0 Z " fill="#B1DFE6" transform="translate(3,29)"/>
<path d="M0 0 C-0.33 2.64 -0.66 5.28 -1 8 C0.32 8.33 1.64 8.66 3 9 C2.67 10.32 2.34 11.64 2 13 C-0.31 12.67 -2.62 12.34 -5 12 C-5.33 12.99 -5.66 13.98 -6 15 C-7.32 15 -8.64 15 -10 15 C-11.98 11.535 -11.98 11.535 -14 8 C-14.66 9.32 -15.32 10.64 -16 12 C-19 10.3125 -19 10.3125 -22 8 C-22.375 5.25 -22.375 5.25 -22 3 C-20.02 3 -18.04 3 -16 3 C-15.67 2.01 -15.34 1.02 -15 0 C-9.76528314 -0.75612577 -5.22745859 -1.2063366 0 0 Z " fill="#BED06D" transform="translate(44,7)"/>
<path d="M0 0 C9.48454341 0.2459968 16.87033994 3.69410889 23.68359375 10.21484375 C29.92013961 17.38492661 31.00755272 25.21675828 30.8515625 34.41796875 C30.4581018 39.80412672 29.2226875 44.65072053 26.5625 49.375 C25.5725 50.035 24.5825 50.695 23.5625 51.375 C24.02267793 47.78561217 24.81481506 44.66212377 26.125 41.3125 C28.45086644 34.39304734 28.91359251 27.26000959 26.49609375 20.30859375 C22.93961757 13.18595072 18.56393697 8.44936648 11.1796875 5.38671875 C5.40399312 3.47657531 -0.3838702 2.74852184 -6.4375 2.375 C-4.01874153 -0.04375847 -3.32616956 0.05321871 0 0 Z " fill="#725D42" transform="translate(40.4375,2.625)"/>
<path d="M0 0 C0.66 0.99 1.32 1.98 2 3 C-4.56512281 10.54336959 -12.94322079 15.73173832 -23 17 C-29.69483897 17.42122815 -35.66931899 17.30206582 -42 15 C-42 14.01 -42 13.02 -42 12 C-41.33097656 12.15855469 -40.66195312 12.31710938 -39.97265625 12.48046875 C-28.89154644 14.41711475 -16.75792675 13.88919042 -7.03515625 7.76171875 C-4.22898296 5.54559657 -1.97862274 2.96793411 0 0 Z " fill="#6C5341" transform="translate(63,52)"/>
<path d="M0 0 C0 1.65 0 3.3 0 5 C2.97 6.65 5.94 8.3 9 10 C6.12086007 12.87913993 2.81657802 13.72780733 -1 15 C-0.67 13.02 -0.34 11.04 0 9 C-2.31 8.01 -4.62 7.02 -7 6 C-5.52522876 2.59668175 -4.14385429 0 0 0 Z " fill="#B0DADF" transform="translate(21,10)"/>
<path d="M0 0 C0.66 0.33 1.32 0.66 2 1 C0.02 1.99 -1.96 2.98 -4 4 C-3.01 4.66 -2.02 5.32 -1 6 C-2.98 6 -4.96 6 -7 6 C-6.88658466 8.40877257 -6.88658466 8.40877257 -6 11 C-3.66209929 12.95335182 -3.66209929 12.95335182 -1 14 C-0.34 13.67 0.32 13.34 1 13 C1 13.99 1 14.98 1 16 C-2.99455527 15.38545304 -5.74466336 13.29353263 -9 11 C-8.67 9.35 -8.34 7.7 -8 6 C-10.31 7.32 -12.62 8.64 -15 10 C-14.87109375 8.16796875 -14.87109375 8.16796875 -14 6 C-11.34765625 4.55078125 -11.34765625 4.55078125 -8.0625 3.3125 C-6.98097656 2.89613281 -5.89945313 2.47976562 -4.78515625 2.05078125 C-3.40650391 1.53064453 -3.40650391 1.53064453 -2 1 C-1.34 0.67 -0.68 0.34 0 0 Z " fill="#8C7B5C" transform="translate(29,4)"/>
<path d="M0 0 C0.66 0.99 1.32 1.98 2 3 C-2.90525563 8.63617121 -8.03555186 12.23713849 -15 15 C-15.66 15 -16.32 15 -17 15 C-17.33 14.01 -17.66 13.02 -18 12 C-17.33613281 11.75765625 -16.67226563 11.5153125 -15.98828125 11.265625 C-9.19437697 8.68691681 -4.17898457 6.15850357 0 0 Z " fill="#705B48" transform="translate(63,52)"/>
<path d="M0 0 C5.92419734 0.10363027 11.26840704 1.74236575 16.5625 4.375 C16.8925 5.035 17.2225 5.695 17.5625 6.375 C14.23861627 5.87641744 11.06387896 5.24203439 7.8125 4.375 C3.11799779 3.15588508 -1.61262586 2.75070741 -6.4375 2.375 C-4.01874153 -0.04375847 -3.32616956 0.05321871 0 0 Z " fill="#7F7A6F" transform="translate(40.4375,2.625)"/>
<path d="M0 0 C1.98 0 3.96 0 6 0 C6 3 6 6 6 9 C3 7.3125 3 7.3125 0 5 C-0.375 2.25 -0.375 2.25 0 0 Z " fill="#C9E76D" transform="translate(22,10)"/>
<path d="M0 0 C4.83256305 0.41421969 6.82679218 2.46413986 10 6 C9.67 6.99 9.34 7.98 9 9 C7.87105124 8.06725891 6.74699124 7.12859878 5.625 6.1875 C4.99851562 5.66542969 4.37203125 5.14335937 3.7265625 4.60546875 C2 3 2 3 0 0 Z " fill="#766550" transform="translate(56,9)"/>
<path d="M0 0 C2.91517292 1.07401108 4.77810176 1.77810176 7 4 C3.37 4.66 -0.26 5.32 -4 6 C-2 2 -2 2 0 0 Z " fill="#A8B394" transform="translate(13,14)"/>
<path d="M0 0 C-0.66 0 -1.32 0 -2 0 C-2 0.99 -2 1.98 -2 3 C-5.82320557 4.42258812 -8.91281305 5.24042276 -13 5 C-11.05073178 3.05073178 -9.4892942 2.06431004 -7.0625 0.8125 C-6.37285156 0.44769531 -5.68320312 0.08289063 -4.97265625 -0.29296875 C-3 -1 -3 -1 0 0 Z " fill="#A8C8C9" transform="translate(36,4)"/>
</svg>
