<svg version="1.1" viewBox="0 0 64 64" xmlns="http://www.w3.org/2000/svg">
 <path transform="scale(.213)" d="m145 223 8.07 3.29-41.6 45.6z" fill="#007cc4"/>
 <path transform="scale(.213)" d="m221 96.4-137 102 12.2 68c0 3.63 2.23 6.98 5.72 8.37 0.977 0.418 2.09 0.558 3.21 0.558 2.51 0 4.88-0.976 6.56-2.93l33.5-48.9 9.32-15.5z" fill="#0a9ee6"/>
 <path transform="scale(.213)" d="m271 26.6c2.93 2.09 4.32 5.44 3.77 8.93l-35.7 214c-0.419 2.65-2.09 4.88-4.46 6.28-1.26 0.698-2.79 1.12-4.32 1.12-1.12 0-2.23-0.279-3.35-0.698l-81.6-33.3 9.32-15.5 68.6 28 30.8-185-200 115 46.9 19.1-16.8 12.4-53.6-21.9c-3.21-1.26-5.3-4.19-5.58-7.67-0.279-3.35 1.53-6.56 4.46-8.23l232-134c2.93-1.81 6.7-1.67 9.49 0.279" fill="#c5ac64" stroke-width="7.17"/>
</svg>
