<svg xmlns="http://www.w3.org/2000/svg" viewBox="0 0 200 200" width="200" height="200">
  <!-- Holos H Modular - Universal Dark Mode (GLOW variant) -->
  <!-- Option 4: Surface glow for dark backgrounds -->

  <defs>
    <!-- Lighter colors for dark mode -->
    <linearGradient id="blockPrimaryDark" x1="0%" y1="0%" x2="100%" y2="100%">
      <stop offset="0%" style="stop-color:#60A5FA;stop-opacity:1" />
      <stop offset="100%" style="stop-color:#3B82F6;stop-opacity:1" />
    </linearGradient>

    <linearGradient id="blockSecondaryDark" x1="0%" y1="0%" x2="100%" y2="100%">
      <stop offset="0%" style="stop-color:#93C5FD;stop-opacity:1" />
      <stop offset="100%" style="stop-color:#60A5FA;stop-opacity:1" />
    </linearGradient>

    <linearGradient id="blockBridgeDark" x1="0%" y1="0%" x2="100%" y2="0%">
      <stop offset="0%" style="stop-color:#A5B4FC;stop-opacity:1" />
      <stop offset="50%" style="stop-color:#93C5FD;stop-opacity:1" />
      <stop offset="100%" style="stop-color:#A5B4FC;stop-opacity:1" />
    </linearGradient>

    <!-- Surface glow for dark mode (brighter, more visible) -->
    <filter id="surfaceGlowDark" x="-50%" y="-50%" width="200%" height="200%">
      <feGaussianBlur in="SourceAlpha" stdDeviation="2.5" result="blur1"/>
      <feFlood flood-color="#FFFFFF" flood-opacity="0.3"/>
      <feComposite in2="blur1" operator="in" result="glow1"/>

      <feGaussianBlur in="SourceAlpha" stdDeviation="5" result="blur2"/>
      <feFlood flood-color="#FFFFFF" flood-opacity="0.2"/>
      <feComposite in2="blur2" operator="in" result="glow2"/>

      <feMerge>
        <feMergeNode in="glow2"/>
        <feMergeNode in="glow1"/>
        <feMergeNode in="SourceGraphic"/>
      </feMerge>
    </filter>

    <!-- Outer glow (halo effect) -->
    <filter id="outerGlow" x="-50%" y="-50%" width="200%" height="200%">
      <feGaussianBlur in="SourceAlpha" stdDeviation="3"/>
      <feOffset dx="0" dy="0" result="offsetblur"/>
      <feFlood flood-color="#60A5FA" flood-opacity="0.3"/>
      <feComposite in2="offsetblur" operator="in"/>
      <feMerge>
        <feMergeNode/>
        <feMergeNode in="SourceGraphic"/>
      </feMerge>
    </filter>

    <filter id="glow" x="-50%" y="-50%" width="200%" height="200%">
      <feGaussianBlur in="SourceGraphic" stdDeviation="1.5" result="blur"/>
      <feMerge>
        <feMergeNode in="blur"/>
        <feMergeNode in="SourceGraphic"/>
      </feMerge>
    </filter>
  </defs>

  <!-- Transparent background -->

  <!-- Left vertical column with surface glow -->
  <rect x="30" y="26" width="34" height="48" rx="8" fill="url(#blockPrimaryDark)" filter="url(#outerGlow)"/>
  <rect x="30" y="26" width="34" height="48" rx="8" fill="url(#blockPrimaryDark)" filter="url(#surfaceGlowDark)" opacity="0.5"/>

  <rect x="30" y="78" width="34" height="44" rx="8" fill="url(#blockSecondaryDark)" filter="url(#glow)"/>
  <rect x="30" y="78" width="34" height="44" rx="8" fill="url(#blockSecondaryDark)" filter="url(#surfaceGlowDark)" opacity="0.4"/>

  <rect x="30" y="126" width="34" height="48" rx="8" fill="url(#blockPrimaryDark)" filter="url(#outerGlow)"/>
  <rect x="30" y="126" width="34" height="48" rx="8" fill="url(#blockPrimaryDark)" filter="url(#surfaceGlowDark)" opacity="0.5"/>

  <!-- Right vertical column with surface glow -->
  <rect x="136" y="26" width="34" height="48" rx="8" fill="url(#blockPrimaryDark)" filter="url(#outerGlow)"/>
  <rect x="136" y="26" width="34" height="48" rx="8" fill="url(#blockPrimaryDark)" filter="url(#surfaceGlowDark)" opacity="0.5"/>

  <rect x="136" y="78" width="34" height="44" rx="8" fill="url(#blockSecondaryDark)" filter="url(#glow)"/>
  <rect x="136" y="78" width="34" height="44" rx="8" fill="url(#blockSecondaryDark)" filter="url(#surfaceGlowDark)" opacity="0.4"/>

  <rect x="136" y="126" width="34" height="48" rx="8" fill="url(#blockPrimaryDark)" filter="url(#outerGlow)"/>
  <rect x="136" y="126" width="34" height="48" rx="8" fill="url(#blockPrimaryDark)" filter="url(#surfaceGlowDark)" opacity="0.5"/>

  <!-- Horizontal bridge with surface glow -->
  <rect x="68" y="88" width="22" height="24" rx="7" fill="url(#blockBridgeDark)" filter="url(#glow)"/>
  <rect x="68" y="88" width="22" height="24" rx="7" fill="url(#blockBridgeDark)" filter="url(#surfaceGlowDark)" opacity="0.4"/>

  <rect x="92" y="88" width="16" height="24" rx="6" fill="url(#blockPrimaryDark)" filter="url(#outerGlow)"/>
  <rect x="92" y="88" width="16" height="24" rx="6" fill="url(#blockPrimaryDark)" filter="url(#surfaceGlowDark)" opacity="0.5"/>

  <rect x="110" y="88" width="22" height="24" rx="7" fill="url(#blockBridgeDark)" filter="url(#glow)"/>
  <rect x="110" y="88" width="22" height="24" rx="7" fill="url(#blockBridgeDark)" filter="url(#surfaceGlowDark)" opacity="0.4"/>

  <!-- Connection points -->
  <circle cx="47" cy="76" r="5" fill="#93C5FD" opacity="0.8"/>
  <circle cx="47" cy="124" r="5" fill="#93C5FD" opacity="0.8"/>
  <circle cx="153" cy="76" r="5" fill="#93C5FD" opacity="0.8"/>
  <circle cx="153" cy="124" r="5" fill="#93C5FD" opacity="0.8"/>

  <!-- Inner highlights on connection dots -->
  <circle cx="47" cy="73" r="2" fill="#FFFFFF" opacity="0.6"/>
  <circle cx="153" cy="73" r="2" fill="#FFFFFF" opacity="0.6"/>
</svg>
