<svg viewBox="0 0 24 24" xmlns="http://www.w3.org/2000/svg"><path fill="currentColor" d="M7.02 21.5l.52-3.3.02-.13H4.18L7.44 1.5h7.64c2.57 0 4.35.53 5.33 1.59.46.5.76 1.02.93 1.6.17.6.21 1.31.11 2.12l-.01.08v.7l.54.31c.46.26.82.56 1.1.9.33.4.54.88.64 1.43.1.57.09 1.24-.04 2-.14.87-.38 1.63-.72 2.26-.31.58-.71 1.06-1.2 1.44-.47.36-1.02.63-1.66.81-.62.17-1.3.26-2.05.26h-.49c-.35 0-.69.13-.95.35-.26.23-.44.54-.5.88l-.04.2-.61 3.89-.03.15c-.01.06-.02.09-.05.12a.15.15 0 01-.1.05H7.02zM18.75 7.32c-.01.08-.03.17-.04.25-.56 2.88-2.49 3.87-4.95 3.87H12.5c-.3 0-.55.22-.6.51l-.64 4.04-.18 1.14c-.03.18.11.34.29.34h2.05c.26 0 .49-.19.53-.45l.02-.11.42-2.66.03-.15c.04-.26.27-.45.53-.45h.33c2.17 0 3.87-.88 4.37-3.43.21-1.06.1-1.95-.45-2.57a2.14 2.14 0 00-.62-.46l.17.13z"/></svg>
